<svg width="160" height="33" viewBox="0 0 160 33" fill="none" xmlns="http://www.w3.org/2000/svg">
<path d="M24.0226 15.4445H41.0576C41.1418 15.4445 41.2196 15.4088 41.2682 15.3407L43.8513 12.0705C43.887 12.0252 43.9064 11.9668 43.9064 11.9085V6.49593C43.9064 6.35009 43.7865 6.23341 43.6374 6.23341H28.774C28.5471 6.23341 28.424 5.98061 28.5633 5.80559L29.8468 4.18507C29.8986 4.12025 29.9764 4.08135 30.0574 4.08135H65.3524C65.5015 4.08135 65.6214 3.96468 65.6214 3.81883V0.762525C65.6214 0.616678 65.5015 0.5 65.3524 0.5H26.6057C26.5215 0.5 26.4437 0.535651 26.3951 0.603713L23.812 3.87393C23.7763 3.9193 23.7569 3.97764 23.7569 4.03598V9.44852C23.7569 9.59437 23.8768 9.71105 24.0259 9.71105H38.8893C39.1162 9.71105 39.2393 9.96385 39.1 10.1389L37.8165 11.7594C37.7647 11.8242 37.6869 11.8631 37.6058 11.8631H24.0226C23.8735 11.8631 23.7536 11.9798 23.7536 12.1256V15.1754C23.7536 15.3213 23.8735 15.438 24.0226 15.438V15.4445Z" fill="white"/>
<path d="M85.1746 0.603713C85.1228 0.538893 85.045 0.5 84.964 0.5H68.023C67.874 0.5 67.754 0.616678 67.754 0.762525V11.5973C67.754 11.7432 67.6341 11.8599 67.485 11.8599H52.4628C52.3785 11.8599 52.3007 11.8242 52.2521 11.7561L50.9687 10.1065C50.8358 9.93468 50.9589 9.67864 51.1793 9.67864H65.3492C65.4983 9.67864 65.6182 9.56196 65.6182 9.41611V6.49269C65.6182 6.34684 65.4983 6.23017 65.3492 6.23017H46.428C46.2789 6.23017 46.159 6.34684 46.159 6.49269V11.9052C46.159 11.9636 46.1784 12.0219 46.2141 12.0673L48.7972 15.3375C48.849 15.4023 48.9268 15.4412 49.0078 15.4412H71.8604C72.0095 15.4412 72.1294 15.3245 72.1294 15.1787H72.1392V4.34712C72.1392 4.20127 72.2591 4.0846 72.4082 4.0846H81.2076C81.2919 4.0846 81.3697 4.12025 81.4183 4.18507L83.4861 6.78763C83.5217 6.833 83.5412 6.89134 83.5412 6.94968V15.1819C83.5412 15.3278 83.6611 15.4445 83.8102 15.4445H87.6541C87.8031 15.4445 87.9231 15.3278 87.9231 15.1819V4.1721C87.9231 4.11376 87.9036 4.05543 87.868 4.01005L85.1779 0.603713H85.1746Z" fill="white"/>
<path d="M96.2331 21.4436H115.524C115.673 21.4436 115.793 21.327 115.793 21.1811V18.1313C115.793 17.9854 115.673 17.8688 115.524 17.8688H96.2331C96.084 17.8688 95.9641 17.9854 95.9641 18.1313V21.1811C95.9641 21.327 96.084 21.4436 96.2331 21.4436Z" fill="white"/>
<path d="M115.472 29.3356C115.42 29.2708 115.342 29.2319 115.258 29.2319H102.265C102.18 29.2319 102.103 29.1962 102.051 29.1281L100.771 27.4785C100.638 27.3067 100.761 27.0506 100.981 27.0506H115.521C115.67 27.0506 115.79 26.934 115.79 26.7881V23.8647C115.79 23.7188 115.67 23.6022 115.521 23.6022H96.2299C96.084 23.6022 95.9608 23.7188 95.9608 23.8647V29.2772C95.9608 29.3356 95.9803 29.3939 96.0159 29.4393L98.5991 32.7095C98.6509 32.7743 98.7287 32.8132 98.813 32.8132H117.663C117.89 32.8132 118.013 32.5604 117.877 32.3854L115.469 29.3356H115.472Z" fill="white"/>
<path d="M118.412 17.8655C118.305 17.8655 118.243 17.9692 118.275 18.0632C118.269 18.0859 118.262 18.1054 118.262 18.1313V21.1811C118.262 21.327 118.382 21.4436 118.531 21.4436H125.727C125.872 21.4436 125.996 21.5603 125.996 21.7062V32.541C125.996 32.6868 126.116 32.8035 126.265 32.8035H130.261C130.407 32.8035 130.53 32.6868 130.53 32.541V21.7062C130.53 21.5603 130.65 21.4436 130.799 21.4436H137.994C138.14 21.4436 138.263 21.327 138.263 21.1811V18.1313C138.263 18.1086 138.256 18.0859 138.25 18.0632C138.282 17.9692 138.221 17.8655 138.114 17.8655H118.412Z" fill="white"/>
<path d="M43.7022 23.6022H28.6476C28.4791 23.6022 28.3786 23.4077 28.4855 23.2748L29.8662 21.5279C29.9019 21.4793 29.9635 21.4501 30.0283 21.4501H43.7022C43.8157 21.4501 43.9097 21.3594 43.9097 21.2459V18.0729C43.9097 17.9595 43.8189 17.8688 43.7022 17.8688H26.5798C26.515 17.8688 26.4534 17.8947 26.4178 17.9465L23.8022 21.2556C23.7731 21.2913 23.7601 21.3334 23.7601 21.3788V26.8789C23.7601 26.9923 23.8508 27.083 23.9675 27.083H39.0222C39.194 27.083 39.2912 27.2775 39.1842 27.4104L37.8035 29.1573C37.7679 29.2059 37.7063 29.2351 37.6415 29.2351H23.9675C23.8541 29.2351 23.7601 29.3259 23.7601 29.4393V32.6123C23.7601 32.7257 23.8508 32.8165 23.9675 32.8165H41.09C41.1548 32.8165 41.2164 32.7905 41.252 32.7387L43.8675 29.4296C43.8935 29.3939 43.9097 29.3518 43.9097 29.3064V23.8064C43.9097 23.6929 43.8157 23.6022 43.7022 23.6022Z" fill="white"/>
<path d="M65.5372 17.8655H48.8555C48.7745 17.8655 48.6999 17.9044 48.6513 17.966L46.0261 21.4307C45.9937 21.476 45.9742 21.5311 45.9742 21.5862V32.5474C45.9742 32.6901 46.0877 32.8035 46.2303 32.8035L62.9411 32.8132C63.0091 32.8132 63.074 32.7873 63.1226 32.7387L65.7187 30.1426C65.7673 30.094 65.7932 30.0292 65.7932 29.9611V18.1216C65.7932 17.979 65.6798 17.8655 65.5372 17.8655ZM61.5961 26.5548C61.5961 26.6099 61.5798 26.6617 61.5474 26.7038L59.8005 29.1281C59.7519 29.1962 59.6741 29.2351 59.5931 29.2351H50.5571C50.4145 29.2351 50.301 29.1217 50.301 28.9791V24.1888C50.301 24.1305 50.3205 24.0754 50.3561 24.03L52.398 21.4793C52.4466 21.4177 52.5211 21.382 52.5989 21.382H61.3433C61.4859 21.382 61.5993 21.4955 61.5993 21.6381V26.5548H61.5961Z" fill="white"/>
<path d="M87.6605 17.8655H70.7812C70.7034 17.8655 70.6288 17.9012 70.5802 17.9627L67.8739 21.3723C67.8383 21.4177 67.8189 21.4728 67.8189 21.5311V32.5539C67.8189 32.6965 67.9323 32.81 68.0749 32.81L87.6605 32.8003C87.8031 32.8003 87.9166 32.6868 87.9166 32.5442V29.4879C87.9166 29.3453 87.8031 29.2319 87.6605 29.2319H72.3628C72.2202 29.2319 72.1068 29.1184 72.1068 28.9758V24.0592C72.1068 24.0073 72.123 23.9522 72.1554 23.9101L73.844 21.5506C73.8926 21.4825 73.9704 21.4436 74.0514 21.4436H87.6605C87.8031 21.4436 87.9166 21.3302 87.9166 21.1876V18.1216C87.9166 17.979 87.8031 17.8655 87.6605 17.8655Z" fill="white"/>
<path d="M94.3047 17.8655H90.2858C90.1444 17.8655 90.0297 17.9802 90.0297 18.1216V32.5474C90.0297 32.6889 90.1444 32.8035 90.2858 32.8035H94.3047C94.4461 32.8035 94.5607 32.6889 94.5607 32.5474V18.1216C94.5607 17.9802 94.4461 17.8655 94.3047 17.8655Z" fill="white"/>
<path d="M159.738 17.8655H155.534C155.457 17.8655 155.385 17.9012 155.337 17.9595L150.252 24.1564C150.148 24.2828 149.957 24.2828 149.856 24.1564L144.82 17.9627C144.771 17.9044 144.696 17.8688 144.622 17.8688H140.525C140.308 17.8688 140.191 18.1216 140.327 18.2869L147.892 27.5368C147.931 27.5822 147.95 27.6405 147.95 27.6988V32.5604C147.95 32.703 148.064 32.8165 148.206 32.8165L152.255 32.81C152.397 32.81 152.511 32.6965 152.511 32.5539V27.5984C152.511 27.54 152.53 27.4817 152.569 27.4363L159.942 18.2869C160.078 18.1183 159.958 17.8688 159.741 17.8688L159.738 17.8655Z" fill="white"/>
<path d="M19.5921 0.5H0.324104C0.145107 0.5 0 0.645107 0 0.824105V32.4794C0 32.6584 0.145106 32.8035 0.324104 32.8035H19.5921C19.7711 32.8035 19.9162 32.6584 19.9162 32.4794V0.824104C19.9162 0.645107 19.7711 0.5 19.5921 0.5Z" fill="#E5062F"/>
</svg>
