<?xml version="1.0" encoding="UTF-8" standalone="no" ?>
<!DOCTYPE svg PUBLIC "-//W3C//DTD SVG 1.1//EN" "http://www.w3.org/Graphics/SVG/1.1/DTD/svg11.dtd">
<svg xmlns="http://www.w3.org/2000/svg" xmlns:xlink="http://www.w3.org/1999/xlink" version="1.1" width="1080" height="1080" viewBox="0 0 1080 1080" xml:space="preserve">
<desc>Created with Fabric.js 5.2.4</desc>
<defs>
</defs>
<g transform="matrix(1 0 0 1 540 540)" id="2e0925bd-2410-4bf6-ab27-9516853d618f"  >
<rect style="stroke: none; stroke-width: 1; stroke-dasharray: none; stroke-linecap: butt; stroke-dashoffset: 0; stroke-linejoin: miter; stroke-miterlimit: 4; fill: rgb(255,255,255); fill-rule: nonzero; opacity: 1; visibility: hidden;" vector-effect="non-scaling-stroke"  x="-540" y="-540" rx="0" ry="0" width="1080" height="1080" />
</g>
<g transform="matrix(1 0 0 1 540 540)" id="a06d65ab-2825-4a16-8663-604e0d5a3da1"  >
</g>
<g transform="matrix(1 0 0 1 540 540)" id="09801541-fdb6-4f0f-94a2-09b73132fd49"  >
<path style="stroke: rgb(0,0,0); stroke-width: 0; stroke-dasharray: none; stroke-linecap: butt; stroke-dashoffset: 0; stroke-linejoin: miter; stroke-miterlimit: 4; fill: rgb(229,6,47); fill-rule: nonzero; opacity: 1;" vector-effect="non-scaling-stroke"  transform=" translate(-224, -255.98)" d="M 448 209.9 C 403.95938596953914 209.99431768988785 361.00263163862763 196.2467570611841 325.20000000000005 170.60000000000005 L 325.2 349.4 C 325.1790155488135 417.21131618385954 283.0766816020273 477.88958370251373 219.56265660450504 501.64550236605277 C 156.04863160698278 525.4014210295918 84.46055651985941 507.2463617305301 39.94377655478763 456.0933428120347 C -4.573003410284116 404.9403238935393 -12.670177735381117 331.5312342602993 19.627468537408788 271.90542535029533 C 51.92511481019869 212.27961644029142 117.83523069787589 178.95822246427298 184.99999999999997 188.3 L 185 278.2 C 154.23660521504368 268.51586351903796 120.7334347564391 279.6975534424043 101.95286720599273 305.9169973831155 C 83.17229965554637 332.1364413238267 83.36754046525871 367.455763250314 102.43682705901689 393.4659779145972 C 121.50611365277507 419.4761925788804 155.1308548331366 430.28680777295347 185.78530744895056 420.2631610861536 C 216.4397600647645 410.23951439935377 237.1816586789796 381.65164525528763 237.2 349.4 L 237.2 0 L 325.2 0 C 325.1503466398027 7.442641622729138 325.7863668834671 14.874036048702726 327.09999999999997 22.20000000000001 L 327.09999999999997 22.2 C 333.28505458068236 55.20320952769022 352.77781551126617 84.20728052273333 380.99999999999994 102.39999999999999 C 400.87756536822786 115.52841833520341 424.1783160676978 122.5186435450444 447.99999999999994 122.50000000000001 z" stroke-linecap="round" />
</g>
<g transform="matrix(NaN NaN NaN NaN 0 0)"  >
<g style=""   >
</g>
</g>
<g transform="matrix(NaN NaN NaN NaN 0 0)"  >
<g style=""   >
</g>
</g>
</svg>